<svg width="152" height="152" viewBox="0 0 152 152" fill="none" xmlns="http://www.w3.org/2000/svg">
<rect width="152" height="152" rx="76" fill="#99ADBB"/>
<mask id="mask0_1061_14266" style="mask-type:alpha" maskUnits="userSpaceOnUse" x="30" y="30" width="92" height="92">
<rect x="30.3999" y="30.4004" width="91.2" height="91.2" fill="#D9D9D9"/>
</mask>
<g mask="url(#mask0_1061_14266)">
<path d="M75.9999 76.0006C71.8199 76.0006 68.2415 74.5123 65.2649 71.5356C62.2882 68.5589 60.7999 64.9806 60.7999 60.8006C60.7999 56.6206 62.2882 53.0423 65.2649 50.0656C68.2415 47.0889 71.8199 45.6006 75.9999 45.6006C80.1799 45.6006 83.7582 47.0889 86.7349 50.0656C89.7115 53.0423 91.1999 56.6206 91.1999 60.8006C91.1999 64.9806 89.7115 68.5589 86.7349 71.5356C83.7582 74.5123 80.1799 76.0006 75.9999 76.0006ZM45.5999 106.401V95.7606C45.5999 93.6073 46.154 91.6281 47.2624 89.8231C48.3707 88.0181 49.8432 86.6406 51.6799 85.6906C55.6065 83.7273 59.5965 82.2548 63.6499 81.2731C67.7032 80.2914 71.8199 79.8006 75.9999 79.8006C80.1799 79.8006 84.2965 80.2914 88.3499 81.2731C92.4032 82.2548 96.3932 83.7273 100.32 85.6906C102.157 86.6406 103.629 88.0181 104.737 89.8231C105.846 91.6281 106.4 93.6073 106.4 95.7606V106.401H45.5999ZM53.1999 98.8006H98.7999V95.7606C98.7999 95.0639 98.6257 94.4306 98.2774 93.8606C97.929 93.2906 97.4699 92.8473 96.8999 92.5306C93.4799 90.8206 90.0282 89.5381 86.5449 88.6831C83.0615 87.8281 79.5465 87.4006 75.9999 87.4006C72.4532 87.4006 68.9382 87.8281 65.4549 88.6831C61.9715 89.5381 58.5199 90.8206 55.0999 92.5306C54.5299 92.8473 54.0707 93.2906 53.7224 93.8606C53.374 94.4306 53.1999 95.0639 53.1999 95.7606V98.8006ZM75.9999 68.4006C78.0899 68.4006 79.879 67.6564 81.3674 66.1681C82.8557 64.6798 83.5999 62.8906 83.5999 60.8006C83.5999 58.7106 82.8557 56.9214 81.3674 55.4331C79.879 53.9448 78.0899 53.2006 75.9999 53.2006C73.9099 53.2006 72.1207 53.9448 70.6324 55.4331C69.144 56.9214 68.3999 58.7106 68.3999 60.8006C68.3999 62.8906 69.144 64.6798 70.6324 66.1681C72.1207 67.6564 73.9099 68.4006 75.9999 68.4006Z" fill="white"/>
</g>
</svg>
